<svg viewBox="0 0 12 12" width="60px" height="60px" xmlns="http://www.w3.org/2000/svg"><path fill-rule="evenodd" d="M 0,0 11,0 11,3 10,3 10,4 11,4 11,8 10,8 10,10 8,10 8,11 3,11 3,10 1,10 1,8 0,8 0,4 1,4 1,3 0,3z" fill="#43BF4D"/><path fill-rule="evenodd" d="M 1,1 3,1 3,3 2,3 2,2 1,2z" fill="#ffffff"/><path fill-rule="evenodd" d="M 4,1 5,1 5,2 4,2z" fill="#ffffff"/><path fill-rule="evenodd" d="M 6,1 7,1 7,2 6,2z" fill="#ffffff"/><path fill-rule="evenodd" d="M 8,1 10,1 10,2 9,2 9,3 8,3z" fill="#ffffff"/><path fill-rule="evenodd" d="M 5,2 6,2 6,3 5,3z" fill="#ffffff"/><path fill-rule="evenodd" d="M 4,3 5,3 5,4 6,4 6,3 7,3 7,5 4,5z" fill="#ffffff"/><path fill-rule="evenodd" d="M 2,4 3,4 3,6 2,6 2,7 1,7 1,5 2,5z" fill="#ffffff"/><path fill-rule="evenodd" d="M 8,4 9,4 9,5 10,5 10,7 9,7 9,6 8,6z" fill="#ffffff"/><path fill-rule="evenodd" d="M 5,6 6,6 6,7 7,7 7,8 9,8 9,9 7,9 7,10 4,10 4,9 2,9 2,8 4,8 4,7 5,7z M 5,8 6,8 6,9 5,9z" fill="#ffffff"/></svg>